<svg xmlns="http://www.w3.org/2000/svg" width="32" height="32" viewBox="0 0 32 32" fill="none" class="">
                            <path d="M27.75 16C27.75 16.1989 27.671 16.3897 27.5303 16.5303C27.3897 16.671 27.1989 16.75 27 16.75H16.75V27C16.75 27.1989 16.671 27.3897 16.5303 27.5303C16.3897 27.671 16.1989 27.75 16 27.75C15.8011 27.75 15.6103 27.671 15.4697 27.5303C15.329 27.3897 15.25 27.1989 15.25 27V16.75H5C4.80109 16.75 4.61032 16.671 4.46967 16.5303C4.32902 16.3897 4.25 16.1989 4.25 16C4.25 15.8011 4.32902 15.6103 4.46967 15.4697C4.61032 15.329 4.80109 15.25 5 15.25H15.25V5C15.25 4.80109 15.329 4.61032 15.4697 4.46967C15.6103 4.32902 15.8011 4.25 16 4.25C16.1989 4.25 16.3897 4.32902 16.5303 4.46967C16.671 4.61032 16.75 4.80109 16.75 5V15.25H27C27.1989 15.25 27.3897 15.329 27.5303 15.4697C27.671 15.6103 27.75 15.8011 27.75 16Z" fill="white" fill-opacity="0.8"></path>
                        </svg>