<svg xmlns="http://www.w3.org/2000/svg" width="572" height="419" viewBox="0 0 572 419" fill="none">
  <path opacity="0.1" fill-rule="evenodd" clip-rule="evenodd" d="M371.373 0L370.902 0V28.8244L343.098 28.8244V0L342.627 0V28.8244L314.823 28.8244V0L314.352 0V28.8244L286.548 28.8244V0L286.077 0V28.8244L258.273 28.8244V0L257.802 0V28.8244L229.998 28.8244V0L229.527 0V28.8244L201.723 28.8244V0L201.252 0V28.8244L173.448 28.8244V0L172.977 0V28.8244L145.173 28.8244V0L144.702 0V28.8244L116.898 28.8244V0L116.427 0V28.8244L88.6232 28.8244V0L88.1519 0V28.8244L60.3482 28.8244V0L59.8769 0V28.8244L32.0732 28.8244L32.0732 0L31.6019 0L31.6019 28.8244L3.79815 28.8244L3.79816 0L3.32691 0L3.32691 28.8244L-20 28.8244V29.3089L3.32691 29.3089L3.3269 57.8911L-20 57.8911V58.3756L3.3269 58.3756L3.3269 86.9578H-20V87.4422H3.3269L3.3269 116.024H-20V116.509H3.3269L3.3269 145.091H-20V145.576H3.3269L3.32689 174.158H-20V174.642H3.32689L3.32689 203.224H-20V203.709H3.32689L3.32689 232.291H-20V232.776H3.32689L3.32689 261.358H-20V261.842H3.32689L3.32689 290.424H-20V290.909H3.32689L3.32689 319.491H-20V319.976H3.32689L3.32688 348.558H-20V349.042H3.32688L3.32688 377.624H-20V378.109H3.32688L3.32688 406.691H-20V407.176H3.32688L3.32688 436H3.79812L3.79813 407.176H31.6019L31.6019 436H32.0731L32.0731 407.176H59.8769V436H60.3481V407.176H88.1519V436H88.6231V407.176H116.427V436H116.898V407.176H144.702V436H145.173V407.176L172.977 407.176V436H173.448V407.176H201.252V436H201.723V407.176H229.527V436H229.998V407.176H257.802V436H258.273V407.176H286.077V436H286.548V407.176H314.352V436H314.823V407.176H342.627V436H343.098V407.176H370.902V436H371.373V407.176H399.177V436H399.648V407.176H427.452V436H427.923V407.176H455.727V436H456.198V407.176H484.002V436H484.473V407.176L512.277 407.176V436H512.748V407.176H540.552V436H541.023V407.176H568.827V436H569.298V407.176H597.102V436H597.573V407.176H625.377V436H625.848V407.176H653.652V436H654.123V407.176H681.927V436H682.398V407.176H710.202V436H710.673V407.176H734V406.691H710.673V378.109H734V377.624H710.673L710.673 349.042H734V348.558H710.673V319.976H734V319.491H710.673V290.909H734V290.424H710.673V261.842H734V261.358H710.673V232.776H734V232.291H710.673V203.709H734V203.224H710.673V174.642H734V174.158H710.673V145.576H734V145.091H710.673V116.509L734 116.509V116.024L710.673 116.024V87.4422L734 87.4422V86.9578L710.673 86.9578V58.3756H734V57.8911H710.673V29.3089L734 29.3089V28.8244L710.673 28.8244V0L710.202 0V28.8244L682.398 28.8244V0L681.927 0V28.8244L654.123 28.8244V0L653.652 0V28.8244L625.848 28.8244V0L625.377 0V28.8244L597.573 28.8244V0L597.102 0V28.8244L569.298 28.8244V0L568.827 0V28.8244L541.023 28.8244V0L540.552 0V28.8244L512.748 28.8244V0L512.277 0V28.8244L484.473 28.8244V0L484.002 0V28.8244L456.198 28.8244V0L455.727 0V28.8244L427.923 28.8244V0L427.452 0V28.8244L399.648 28.8244V0L399.177 0V28.8244L371.373 28.8244V0ZM399.177 29.3089L371.373 29.3089V57.8911H399.177V29.3089ZM399.177 58.3756H371.373V86.9578L399.177 86.9578V58.3756ZM399.648 86.9578V58.3756L427.452 58.3756V86.9578H399.648ZM399.177 87.4422L371.373 87.4422V116.024L399.177 116.024V87.4422ZM399.648 116.024V87.4422H427.452V116.024H399.648ZM399.177 116.509L371.373 116.509V145.091H399.177V116.509ZM399.648 145.091V116.509H427.452V145.091L399.648 145.091ZM399.177 145.576H371.373V174.158H399.177V145.576ZM399.648 174.158V145.576L427.452 145.576V174.158L399.648 174.158ZM399.177 174.642H371.373L371.373 203.224H399.177L399.177 174.642ZM399.648 203.224L399.648 174.642L427.452 174.642L427.452 203.224L399.648 203.224ZM399.177 203.709H371.373V232.291H399.177L399.177 203.709ZM399.648 232.291V203.709L427.452 203.709V232.291L399.648 232.291ZM399.177 232.776H371.373V261.358H399.177V232.776ZM399.648 261.358V232.776L427.452 232.776V261.358H399.648ZM399.177 261.842H371.373V290.424H399.177V261.842ZM399.648 290.424V261.842H427.452V290.424H399.648ZM399.177 290.909H371.373V319.491H399.177V290.909ZM399.648 319.491V290.909H427.452V319.491H399.648ZM399.177 319.976H371.373V348.558H399.177V319.976ZM399.648 348.558V319.976H427.452V348.558H399.648ZM399.177 349.042H371.373V377.624H399.177V349.042ZM399.648 377.624V349.042H427.452V377.624H399.648ZM399.177 378.109H371.373V406.691H399.177V378.109ZM399.648 406.691V378.109H427.452V406.691H399.648ZM399.648 57.8911V29.3089L427.452 29.3089V57.8911L399.648 57.8911ZM3.79815 57.8911L3.79815 29.3089L31.6019 29.3089V57.8911H3.79815ZM3.79815 86.9578L3.79815 58.3756H31.6019L31.6019 86.9578L3.79815 86.9578ZM3.79815 116.024L3.79815 87.4422L31.6019 87.4422L31.6019 116.024L3.79815 116.024ZM3.79815 145.091L3.79815 116.509L31.6019 116.509V145.091H3.79815ZM3.79815 174.158L3.79815 145.576H31.6019L31.6019 174.158H3.79815ZM3.79814 203.224L3.79815 174.642H31.6019L31.6019 203.224H3.79814ZM3.79814 232.291L3.79814 203.709H31.6019V232.291H3.79814ZM3.79814 261.358L3.79814 232.776H31.6019L31.6019 261.358H3.79814ZM3.79814 290.424L3.79814 261.842H31.6019L31.6019 290.424H3.79814ZM3.79813 319.491L3.79814 290.909H31.6019L31.6019 319.491H3.79813ZM3.79813 348.558L3.79813 319.976H31.6019L31.6019 348.558H3.79813ZM3.79813 377.624L3.79813 349.042H31.6019L31.6019 377.624H3.79813ZM3.79813 406.691L3.79813 378.109H31.6019V406.691H3.79813ZM710.202 406.691V378.109H682.398V406.691H710.202ZM681.927 406.691V378.109H654.123V406.691H681.927ZM653.652 406.691V378.109H625.848V406.691H653.652ZM625.377 406.691V378.109H597.573V406.691H625.377ZM597.102 406.691V378.109H569.298V406.691H597.102ZM568.827 406.691V378.109H541.023V406.691H568.827ZM540.552 406.691V378.109H512.748V406.691H540.552ZM512.277 406.691V378.109L484.473 378.109V406.691L512.277 406.691ZM484.002 406.691V378.109H456.198V406.691H484.002ZM455.727 406.691V378.109H427.923V406.691H455.727ZM370.902 406.691V378.109H343.098V406.691H370.902ZM342.627 406.691V378.109H314.823V406.691H342.627ZM314.352 406.691V378.109H286.548V406.691H314.352ZM286.077 406.691V378.109H258.273V406.691H286.077ZM257.802 406.691V378.109H229.998V406.691H257.802ZM229.527 406.691V378.109H201.723V406.691H229.527ZM201.252 406.691V378.109H173.448V406.691H201.252ZM172.977 406.691V378.109L145.173 378.109V406.691L172.977 406.691ZM144.702 406.691V378.109H116.898V406.691H144.702ZM116.427 406.691V378.109H88.6231L88.6231 406.691H116.427ZM88.1519 406.691L88.1519 378.109H60.3481L60.3481 406.691H88.1519ZM59.8769 406.691L59.8769 378.109H32.0731V406.691H59.8769ZM484.002 377.624H456.198V349.042H484.002V377.624ZM455.727 377.624V349.042H427.923V377.624H455.727ZM484.002 348.558H456.198V319.976H484.002V348.558ZM455.727 348.558V319.976H427.923V348.558H455.727ZM484.002 319.491H456.198V290.909H484.002V319.491ZM455.727 319.491V290.909H427.923V319.491H455.727ZM484.002 290.424H456.198V261.842H484.002V290.424ZM455.727 290.424V261.842H427.923V290.424H455.727ZM484.002 261.358H456.198V232.776H484.002V261.358ZM455.727 261.358V232.776H427.923V261.358H455.727ZM484.002 232.291H456.198L456.198 203.709H484.002V232.291ZM455.727 232.291L455.727 203.709H427.923V232.291H455.727ZM484.002 203.224H456.198L456.198 174.642H484.002L484.002 203.224ZM455.727 203.224L455.727 174.642H427.923L427.923 203.224H455.727ZM484.002 174.158H456.198V145.576H484.002V174.158ZM455.727 174.158V145.576H427.923V174.158H455.727ZM484.002 145.091H456.198V116.509L484.002 116.509V145.091ZM455.727 145.091V116.509H427.923V145.091H455.727ZM484.002 116.024L456.198 116.024V87.4422L484.002 87.4422V116.024ZM455.727 116.024V87.4422H427.923V116.024H455.727ZM484.002 86.9578L456.198 86.9578V58.3756H484.002V86.9578ZM455.727 86.9578V58.3756L427.923 58.3756V86.9578H455.727ZM484.002 57.8911H456.198V29.3089L484.002 29.3089V57.8911ZM455.727 57.8911V29.3089L427.923 29.3089V57.8911L455.727 57.8911ZM60.3481 377.624H88.1519V349.042H60.3481V377.624ZM60.3481 348.558H88.1519V319.976H60.3481V348.558ZM59.8769 319.976V348.558H32.0731L32.0731 319.976H59.8769ZM60.3481 319.491H88.1519L88.1519 290.909H60.3481L60.3481 319.491ZM59.8769 290.909L59.8769 319.491H32.0731L32.0731 290.909H59.8769ZM60.3481 290.424H88.1519V261.842H60.3481V290.424ZM59.8769 261.842V290.424H32.0731L32.0731 261.842H59.8769ZM60.3481 261.358H88.1519V232.776L60.3481 232.776V261.358ZM59.8769 232.776V261.358H32.0731L32.0731 232.776H59.8769ZM60.3481 232.291L88.1519 232.291L88.1519 203.709L60.3482 203.709L60.3481 232.291ZM59.8769 203.709L59.8769 232.291H32.0731V203.709H59.8769ZM60.3482 203.224L88.1519 203.224V174.642L60.3482 174.642V203.224ZM59.8769 174.642V203.224H32.0731L32.0731 174.642H59.8769ZM60.3482 174.158L88.1519 174.158V145.576L60.3482 145.576V174.158ZM59.8769 145.576V174.158H32.0731L32.0731 145.576H59.8769ZM60.3482 145.091L88.1519 145.091L88.1519 116.509H60.3482L60.3482 145.091ZM59.8769 116.509L59.8769 145.091H32.0731V116.509H59.8769ZM60.3482 116.024H88.1519V87.4422H60.3482V116.024ZM59.8769 87.4422V116.024H32.0732L32.0732 87.4422H59.8769ZM60.3482 86.9578H88.1519V58.3756H60.3482V86.9578ZM59.8769 58.3756V86.9578H32.0732L32.0732 58.3756L59.8769 58.3756ZM60.3482 57.8911H88.1519L88.1519 29.3089L60.3482 29.3089L60.3482 57.8911ZM59.8769 29.3089L59.8769 57.8911L32.0732 57.8911V29.3089L59.8769 29.3089ZM59.8769 349.042V377.624H32.0731L32.0731 349.042H59.8769ZM88.6231 377.624V349.042H116.427V377.624H88.6231ZM88.6231 348.558H116.427V319.976H88.6231V348.558ZM116.898 377.624V349.042H144.702V377.624H116.898ZM116.898 348.558H144.702V319.976H116.898V348.558ZM145.173 377.624V349.042L172.977 349.042V377.624L145.173 377.624ZM145.173 348.558L172.977 348.558V319.976L145.173 319.976V348.558ZM173.448 377.624V349.042H201.252V377.624H173.448ZM173.448 348.558H201.252V319.976H173.448V348.558ZM201.723 377.624V349.042H229.527V377.624H201.723ZM201.723 348.558H229.527V319.976H201.723V348.558ZM229.998 377.624V349.042H257.802V377.624H229.998ZM229.998 348.558H257.802V319.976H229.998V348.558ZM258.273 377.624V349.042H286.077V377.624H258.273ZM258.273 348.558H286.077V319.976H258.273V348.558ZM286.548 377.624V349.042H314.352V377.624H286.548ZM286.548 348.558H314.352V319.976H286.548V348.558ZM314.823 377.624V349.042H342.627V377.624H314.823ZM314.823 348.558H342.627V319.976H314.823V348.558ZM343.098 377.624V349.042H370.902V377.624H343.098ZM343.098 348.558H370.902V319.976H343.098V348.558ZM484.473 377.624V349.042L512.277 349.042L512.277 377.624L484.473 377.624ZM484.473 348.558L512.277 348.558V319.976L484.473 319.976V348.558ZM512.748 377.624L512.748 349.042H540.552L540.552 377.624H512.748ZM512.748 348.558H540.552V319.976H512.748V348.558ZM541.023 377.624L541.023 349.042H568.827L568.827 377.624H541.023ZM541.023 348.558H568.827V319.976H541.023V348.558ZM569.298 377.624L569.298 349.042H597.102L597.102 377.624H569.298ZM569.298 348.558H597.102V319.976H569.298V348.558ZM597.573 377.624L597.573 349.042H625.377L625.377 377.624H597.573ZM597.573 348.558H625.377V319.976H597.573V348.558ZM625.848 377.624L625.848 349.042H653.652L653.652 377.624H625.848ZM625.848 348.558H653.652V319.976H625.848V348.558ZM654.123 377.624L654.123 349.042H681.927L681.927 377.624H654.123ZM654.123 348.558H681.927V319.976H654.123V348.558ZM682.398 377.624L682.398 349.042H710.202L710.202 377.624H682.398ZM682.398 348.558H710.202V319.976H682.398V348.558ZM681.927 29.3089L654.123 29.3089V57.8911L681.927 57.8911V29.3089ZM681.927 58.3756L654.123 58.3756V86.9578H681.927V58.3756ZM682.398 86.9578V58.3756L710.202 58.3756V86.9578H682.398ZM681.927 87.4422H654.123V116.024H681.927V87.4422ZM682.398 116.024V87.4422H710.202V116.024H682.398ZM681.927 116.509H654.123V145.091H681.927V116.509ZM682.398 145.091V116.509H710.202V145.091H682.398ZM681.927 145.576H654.123V174.158H681.927V145.576ZM682.398 174.158V145.576H710.202V174.158H682.398ZM681.927 174.642H654.123V203.224H681.927V174.642ZM682.398 203.224V174.642H710.202V203.224H682.398ZM681.927 203.709H654.123V232.291H681.927L681.927 203.709ZM682.398 232.291V203.709H710.202V232.291H682.398ZM681.927 232.776H654.123V261.358H681.927V232.776ZM682.398 261.358V232.776H710.202V261.358H682.398ZM681.927 261.842H654.123V290.424H681.927V261.842ZM682.398 290.424V261.842H710.202V290.424H682.398ZM681.927 290.909H654.123V319.491H681.927V290.909ZM682.398 319.491V290.909H710.202V319.491H682.398ZM682.398 57.8911V29.3089L710.202 29.3089V57.8911L682.398 57.8911ZM597.102 319.491H569.298V290.909H597.102V319.491ZM568.827 319.491V290.909H541.023V319.491H568.827ZM597.102 290.424H569.298V261.842H597.102V290.424ZM568.827 290.424V261.842H541.023V290.424H568.827ZM597.102 261.358H569.298V232.776H597.102V261.358ZM568.827 261.358V232.776H541.023V261.358H568.827ZM597.102 232.291H569.298L569.298 203.709H597.102V232.291ZM568.827 232.291L568.827 203.709H541.023V232.291H568.827ZM597.102 203.224H569.298V174.642H597.102V203.224ZM568.827 203.224V174.642H541.023V203.224H568.827ZM597.102 174.158H569.298V145.576H597.102V174.158ZM568.827 174.158V145.576H541.023V174.158H568.827ZM597.102 145.091H569.298V116.509H597.102V145.091ZM568.827 145.091V116.509L541.023 116.509V145.091H568.827ZM597.102 116.024H569.298V87.4422H597.102V116.024ZM568.827 116.024V87.4422L541.023 87.4422V116.024L568.827 116.024ZM597.102 86.9578H569.298V58.3756L597.102 58.3756V86.9578ZM568.827 86.9578V58.3756H541.023V86.9578L568.827 86.9578ZM597.102 57.8911L569.298 57.8911V29.3089L597.102 29.3089V57.8911ZM568.827 57.8911V29.3089L541.023 29.3089V57.8911H568.827ZM173.448 319.491H201.252V290.909H173.448V319.491ZM172.977 290.909V319.491L145.173 319.491V290.909L172.977 290.909ZM173.448 290.424H201.252L201.252 261.842H173.448L173.448 290.424ZM172.977 261.842L172.977 290.424L145.173 290.424L145.173 261.842L172.977 261.842ZM173.448 261.358H201.252V232.776H173.448V261.358ZM172.977 232.776V261.358L145.173 261.358V232.776H172.977ZM173.448 232.291H201.252V203.709H173.448V232.291ZM172.977 203.709V232.291H145.173V203.709H172.977ZM173.448 203.224H201.252V174.642H173.448V203.224ZM172.977 174.642V203.224H145.173V174.642H172.977ZM173.448 174.158H201.252V145.576H173.448V174.158ZM172.977 145.576V174.158H145.173V145.576H172.977ZM173.448 145.091H201.252V116.509L173.448 116.509V145.091ZM172.977 116.509V145.091H145.173V116.509H172.977ZM173.448 116.024L201.252 116.024L201.252 87.4422L173.448 87.4422L173.448 116.024ZM172.977 87.4422L172.977 116.024H145.173L145.173 87.4422H172.977ZM173.448 86.9578L201.252 86.9578V58.3756L173.448 58.3756V86.9578ZM172.977 58.3756V86.9578H145.173V58.3756H172.977ZM173.448 57.8911L201.252 57.8911V29.3089L173.448 29.3089V57.8911ZM172.977 29.3089V57.8911H145.173V29.3089L172.977 29.3089ZM88.6231 261.358V232.776H116.427V261.358H88.6231ZM88.6232 232.291H116.427V203.709H88.6232L88.6232 232.291ZM116.898 261.358V232.776H144.702V261.358H116.898ZM116.898 232.291H144.702V203.709H116.898V232.291ZM201.723 261.358V232.776H229.527V261.358H201.723ZM201.723 232.291H229.527V203.709H201.723V232.291ZM229.998 261.358V232.776L257.802 232.776V261.358H229.998ZM229.998 232.291L257.802 232.291V203.709L229.998 203.709V232.291ZM258.273 261.358V232.776H286.077V261.358H258.273ZM258.273 232.291H286.077V203.709H258.273V232.291ZM286.548 261.358V232.776H314.352V261.358H286.548ZM286.548 232.291H314.352V203.709H286.548V232.291ZM314.823 261.358V232.776H342.627V261.358H314.823ZM314.823 232.291H342.627V203.709H314.823V232.291ZM343.098 261.358V232.776H370.902V261.358H343.098ZM343.098 232.291H370.902V203.709H343.098V232.291ZM484.473 261.358V232.776H512.277V261.358L484.473 261.358ZM484.473 232.291H512.277V203.709H484.473V232.291ZM512.748 261.358V232.776H540.552V261.358H512.748ZM512.748 232.291H540.552V203.709H512.748V232.291ZM597.573 261.358V232.776L625.377 232.776V261.358H597.573ZM597.573 232.291L625.377 232.291V203.709L597.573 203.709V232.291ZM625.848 261.358V232.776H653.652V261.358H625.848ZM625.848 232.291H653.652V203.709H625.848V232.291ZM286.548 319.491H314.352V290.909H286.548V319.491ZM286.077 290.909V319.491H258.273V290.909H286.077ZM286.548 290.424H314.352V261.842H286.548V290.424ZM286.077 261.842V290.424H258.273V261.842H286.077ZM286.548 203.224H314.352L314.352 174.642H286.548L286.548 203.224ZM286.077 174.642L286.077 203.224H258.273L258.273 174.642H286.077ZM286.548 174.158H314.352V145.576H286.548V174.158ZM286.077 145.576V174.158H258.273V145.576H286.077ZM286.548 145.091H314.352V116.509L286.548 116.509V145.091ZM286.077 116.509V145.091H258.273V116.509H286.077ZM286.548 116.024L314.352 116.024V87.4422L286.548 87.4422V116.024ZM286.077 87.4422V116.024H258.273V87.4422H286.077ZM286.548 86.9578L314.352 86.9578V58.3756L286.548 58.3756V86.9578ZM286.077 58.3756V86.9578H258.273V58.3756L286.077 58.3756ZM286.548 57.8911L314.352 57.8911V29.3089L286.548 29.3089V57.8911ZM286.077 29.3089V57.8911L258.273 57.8911V29.3089L286.077 29.3089ZM88.6232 145.091L88.6232 116.509L116.427 116.509V145.091H88.6232ZM88.6232 116.024L116.427 116.024L116.427 87.4422L88.6232 87.4422V116.024ZM116.898 145.091V116.509H144.702V145.091H116.898ZM116.898 116.024H144.702L144.702 87.4422H116.898L116.898 116.024ZM201.723 145.091V116.509H229.527V145.091H201.723ZM201.723 116.024H229.527L229.527 87.4422H201.723L201.723 116.024ZM229.998 145.091V116.509H257.802V145.091L229.998 145.091ZM229.998 116.024H257.802V87.4422H229.998L229.998 116.024ZM314.823 145.091V116.509H342.627V145.091H314.823ZM314.823 116.024H342.627V87.4422H314.823V116.024ZM343.098 145.091V116.509H370.902V145.091H343.098ZM343.098 116.024H370.902V87.4422H343.098V116.024ZM484.473 145.091V116.509H512.277V145.091H484.473ZM484.473 116.024H512.277V87.4422H484.473V116.024ZM512.748 145.091V116.509H540.552V145.091H512.748ZM512.748 116.024H540.552V87.4422H512.748V116.024ZM597.573 145.091V116.509H625.377V145.091L597.573 145.091ZM597.573 116.024H625.377V87.4422H597.573V116.024ZM625.848 145.091V116.509L653.652 116.509V145.091H625.848ZM625.848 116.024L653.652 116.024V87.4422L625.848 87.4422V116.024ZM512.277 29.3089L484.473 29.3089V57.8911L512.277 57.8911V29.3089ZM512.277 58.3756L484.473 58.3756V86.9578H512.277V58.3756ZM512.748 86.9578V58.3756L540.552 58.3756V86.9578H512.748ZM512.277 145.576H484.473V174.158H512.277V145.576ZM512.748 174.158V145.576H540.552V174.158H512.748ZM512.277 174.642H484.473L484.473 203.224H512.277V174.642ZM512.748 203.224V174.642H540.552V203.224H512.748ZM512.277 261.842L484.473 261.842V290.424L512.277 290.424V261.842ZM512.748 290.424V261.842H540.552V290.424H512.748ZM512.277 290.909L484.473 290.909V319.491L512.277 319.491V290.909ZM512.748 319.491V290.909H540.552V319.491H512.748ZM512.748 57.8911V29.3089L540.552 29.3089V57.8911L512.748 57.8911ZM88.6232 29.3089L116.427 29.3089V57.8911L88.6232 57.8911L88.6232 29.3089ZM116.898 29.3089V57.8911L144.702 57.8911V29.3089L116.898 29.3089ZM88.6232 58.3756L116.427 58.3756V86.9578L88.6232 86.9578V58.3756ZM116.898 58.3756V86.9578H144.702V58.3756L116.898 58.3756ZM88.6232 145.576H116.427V174.158H88.6232V145.576ZM116.898 145.576V174.158H144.702V145.576H116.898ZM88.6232 174.642H116.427V203.224H88.6232V174.642ZM116.898 174.642V203.224H144.702V174.642H116.898ZM88.6231 261.842H116.427L116.427 290.424H88.6231V261.842ZM116.898 261.842L116.898 290.424H144.702L144.702 261.842H116.898ZM88.6231 290.909H116.427V319.491H88.6231L88.6231 290.909ZM116.898 290.909V319.491H144.702V290.909H116.898ZM653.652 290.424V261.842H625.848V290.424H653.652ZM625.848 290.909H653.652V319.491H625.848V290.909ZM625.377 290.424V261.842H597.573V290.424H625.377ZM597.573 290.909H625.377V319.491H597.573V290.909ZM370.902 290.424V261.842H343.098V290.424H370.902ZM343.098 290.909H370.902V319.491H343.098V290.909ZM342.627 290.424V261.842H314.823V290.424H342.627ZM314.823 290.909H342.627V319.491H314.823V290.909ZM257.802 290.424V261.842H229.998L229.998 290.424H257.802ZM229.998 290.909H257.802V319.491H229.998V290.909ZM229.527 290.424L229.527 261.842H201.723L201.723 290.424H229.527ZM201.723 290.909H229.527V319.491H201.723V290.909ZM653.652 203.224H625.848V174.642H653.652V203.224ZM625.377 203.224V174.642L597.573 174.642V203.224L625.377 203.224ZM653.652 174.158H625.848V145.576H653.652V174.158ZM625.377 174.158V145.576L597.573 145.576V174.158L625.377 174.158ZM653.652 86.9578L625.848 86.9578V58.3756H653.652V86.9578ZM625.377 86.9578V58.3756L597.573 58.3756V86.9578H625.377ZM653.652 57.8911H625.848V29.3089L653.652 29.3089V57.8911ZM625.377 57.8911V29.3089L597.573 29.3089V57.8911L625.377 57.8911ZM229.998 203.224L257.802 203.224L257.802 174.642L229.998 174.642V203.224ZM229.527 174.642V203.224H201.723V174.642H229.527ZM229.998 174.158L257.802 174.158V145.576L229.998 145.576V174.158ZM229.527 145.576V174.158H201.723V145.576H229.527ZM229.998 86.9578H257.802V58.3756H229.998V86.9578ZM229.527 58.3756V86.9578H201.723V58.3756L229.527 58.3756ZM229.998 57.8911H257.802V29.3089L229.998 29.3089V57.8911ZM229.527 29.3089V57.8911L201.723 57.8911V29.3089L229.527 29.3089ZM314.823 203.224L314.823 174.642H342.627L342.627 203.224H314.823ZM314.823 174.158H342.627V145.576H314.823V174.158ZM343.098 203.224L343.098 174.642H370.902L370.902 203.224H343.098ZM343.098 174.158H370.902V145.576H343.098V174.158ZM343.098 86.9578H370.902V58.3756L343.098 58.3756V86.9578ZM342.627 58.3756V86.9578H314.823V58.3756H342.627ZM343.098 57.8911L370.902 57.8911V29.3089L343.098 29.3089V57.8911ZM342.627 29.3089V57.8911H314.823V29.3089L342.627 29.3089Z" fill="url(#paint0_radial_520_1467)"/>
  <defs>
    <radialGradient id="paint0_radial_520_1467" cx="0" cy="0" r="1" gradientUnits="userSpaceOnUse" gradientTransform="translate(283 145.5) rotate(88.9053) scale(157.029 291.856)">
      <stop offset="0.483038" stop-color="#D0D0D0"/>
      <stop offset="1" stop-color="white" stop-opacity="0"/>
    </radialGradient>
  </defs>
</svg>